# xmcd CD database file
#
# Track frame offsets:
#	150
#	1335
#	21103
#	43073
#	86666
#	113536
#	143140
#	178922
#	209478
#	224191
#	245810
#	282643
#
# Disc length: 4251 seconds
#
# Revision: 0
# Processed by: cddbd v1.4PL0 Copyright (c) Steve Scherf et al.
# Submitted via: Feurio! 1.66 - http://www.feurio.com
#
DISCID=bb10990c
DTITLE=Eb Davis and The Superband - Live At Yorckschlösschen Vol.2
DYEAR=2000
DGENRE=blues
TTITLE0=Intro
TTITLE1=Mary Ann
TTITLE2=Drivin Wheel
TTITLE3=Howling
TTITLE4=Bluesman Sings The Blues
TTITLE5=Poor Man`s Blues
TTITLE6=Buttermilk Bottom
TTITLE7=I Wanna Talk About You
TTITLE8=Hard To Handle
TTITLE9=Creeping Under My Skin
TTITLE10=Temorary Lovin`
TTITLE11=Georgia On My Mind
EXTD=
EXTT0=
EXTT1=
EXTT2=
EXTT3=
EXTT4=
EXTT5=
EXTT6=
EXTT7=
EXTT8=
EXTT9=
EXTT10=
EXTT11=
PLAYORDER=
